<svg xmlns="http://www.w3.org/2000/svg" width="240" height="324" fill="none" id="man"><path fill="#fff" fill-rule="evenodd" d="M140.038 286.761c-17.145.048-27.413-.153-46.806-.433-22.445-.594-28.494.474-41.068-1.996-1.923-.408-3.386-1.027-4.87-1.89-.53.601-1.432 1.495-2.288.903-1.577-1.042-.854-4.684-1.245-6.741-.648-18.109-1.683-36.759 1.856-54.649-2.145-.698-14.72-5.872-15.406-7.606 11.37-29.743 36.314-64.549 69.132-63.239.66.814 1.248 2.019 1.98 2.848 4.462-1.671 10.656-3.346 10.961-9.782.773-4.295 1.33-8.304 1.702-12.252.067-.451.608-.606.941-.799.141-1.02.466-2.063 1.17-2.763 5.752-.517 18.881 1.856 22.326 2.833 4.701.805 4.212 5.851 5.087 9.677 1.388 4.729 2.354 9.637 4.417 14.257.467.064 1.774.292 2.256.376.025-.524-.22-2.077.26-2.394.889-.894 1.094.806 1.291 1.361 19.423-3.669 32.123 12.818 36.379 31.235 3.083 9.262 7.167 18.636 12.499 28.688 3.343 6.242-6.263 7.402-10.289 9.893 4.155 16.173 4.655 32.645 5.337 48.946.18 2.508.425 5.917-.463 7.165-.421.328-.714.319-1.141.343-.825.889-2.238.83-3.428 1.084-3.763.685-7.618 1.142-11.24 1.211-10.167 6.295-25.842 2.775-39.35 3.724" clip-rule="evenodd"></path><path fill="#000" fill-rule="evenodd" d="M112.572 131.912c.534-2.674 4.947-2.055 4.746.643-2.228 10.039-.871 22.26-14.952 21.272 8.938 15.728 36.539 25.293 45.461 4.644-4.396-.525-5.266-10.921-5.797-14.558l-.022-.325c-.118-1.871-.078-3.605 1.046-5.205 1.122.84 1.573 2.362 1.953 3.749l.278 1.111c.93 3.704 1.903 7.39 3.378 10.924l.053.009c-.074-2.397 3.002-3.493 3.765-.925 20.813-2.868 32.199 14.315 36.691 32.285 3.277 9.837 7.548 19.301 12.4 28.449 3.662 7.147-5.23 8.783-9.934 11.161 3.618 14.499 4.328 29.52 4.998 44.391-.222 3.174 1.212 9.684-.703 11.96-2.837 2.22-4.365-1.586-3.929-4.026.408-17.256-1.389-34.434-1.904-51.662a191.728 191.728 0 0 1-10.781 4.168c.185 16.166 2.107 32.333 2.792 48.416.899.709 1.396 1.938.628 3.009-4.112 5.737-11.546 6.594-18.087 6.676-15.567.195-31.15.135-46.718.088-15.292-.346-30.717.634-45.929-1.12-2.98 2.24-3.59-2.588-3.191-4.648l.152-4.125c.102-2.75.21-5.5.349-8.249l.346-6.701c.58-11.169 1.196-22.331 2.171-33.478-8.836-1.208-17.545-3.353-25.976-6.248.694 19.35-.73 38.908 1.644 58.159 1.567 2.127-1.575 4.124-3.41 2.792-2.274-1.735-1.298-5.13-1.753-7.627l-.058-1.615c-.636-17.414-1.506-35.195 1.738-52.37l-1.395-.542c-4.255-1.661-15.196-6.105-13.76-8.297 11.421-29.941 36.972-65.752 70.813-64.05.857.595 1.295 1.755 1.93 2.586l1.007-.366c3.899-1.428 8.133-3.238 8.249-8.039a146.234 146.234 0 0 0 1.711-12.316Zm55.767 74.629c4.848-6.783-28.773 3.937-31.163 4.645l-.901.328c-14.725 5.355-30.6 10.533-42.342 21.208-.246.27.06.644.38.492l.041-.024c.467-.26 2.49-.982 1.057-.709 16.966-10.703 36.676-16.583 55.936-21.725a220.93 220.93 0 0 1 8.434-1.866c2.848-.692 6.062-.685 8.558-2.349Zm-53.126-2.208c.414-1.69 3.201-17.229-1.427-12.966-1.234 2.236-1.707 4.827-1.929 7.344-.597 2.935.909 6.099-.556 8.805-1.311 3.534-6.131 7.663-6.453 1.096 7.886-.269 5.518-10.264.15-7.174-2.94 2.517-3.448 7.256-1.977 10.729-2.376-2.588-6.23-2.597-8.98-4.55-4.968-5.371 3.376-10.961 7.919-12.896.256-.282 3.98-1.58 3.191-1.737-3.567.033-7.14.792-10.219 2.668-6.37 3.11-8.538 12.736-1.251 16.109 1.576.76 3.3 1.168 4.86 1.953 3.932 2.038 2.662 4.601-1.397 4.676-1.67.365-7.179-1.164-6.562 1.763.997 1.83 3.167 2.102 5.068 2.154 5.082.348 11.4-2.523 8.528-8.503 3.467 2.954 7.796-1.176 9.281-4.386 1.811 3.552 6.361 2.482 8.929.381 3.925 3.091 8.848-.345 10.596-4.183.036.799.072 1.597.11 2.396.079 1.636 2.615 2.161 2.989.404.57-2.671 1.356-5.313 2.437-7.824 2.487-6.601 4.008-3.625 4.095 1.548.306 1.942 1.278 3.683 3.424 3.813.598.037 1.379-.495 1.472-1.12l.123-.828c.262-1.733.565-3.518 1.219-5.146.63 5.391 7.687 5.365 9.655.895 4.082 2.451 8.365-.973 10.269-4.514l.057-.108c.665-1.211-1.025-2.675-1.991-1.536l-.336.349c-1.822 1.887-4.721 4.622-7.116 2.292.079-1.05.047-2.124-.018-3.157-.077-1.233-1.778-2.329-2.745-1.227-1.363-1.158-3.056-.992-4.481-.184-3.693 1.044-6.02 4.641-6.821 8.215-.085-2.856-1.019-5.955-4.155-6.223-3.213-.027-4.443 3.566-5.539 5.985a395.44 395.44 0 0 1-.18-3.25c-.095-1.864-2.679-1.844-2.891-.055l-.006.055c-.407 3.867-2.548 13.131-7.951 11.318 2.278-2.51 6.4-10.161 2.482-12.544-6.03-1.518-9.123 7.997-6.552 12.425l-.133.094c-1.469 1.014-3.897 2.142-4.717-.13l-.093-.21c-.421-.961-.793-2.001-.378-3.016Zm-8.626-1.072c1.142-.667 1.548 1.541 1.257 2.282-.467 1.189-1.741 1.851-3.01 2.304l.004-.134c.056-1.358.509-3.727 1.749-4.452Zm19.218-5.511c.026.159-.016.353-.021.501-.196 2.602-1.353 5.101-2.963 7.132-.926-2.759.268-6.405 2.984-7.633Zm27.448-3.255c.74-.195 1.524-.14 2.287.066a5.158 5.158 0 0 0 .51 2.531c-1.968 5.915-6.597 1.362-2.797-2.597Z" clip-rule="evenodd"></path><path fill="#fff" fill-rule="evenodd" d="M130.31 50.45c9.459 0 20.807 4.587 21.772 4.68h.026c.508 0 2.492 1.512 5.951 4.536l-3.747 7.312.303.29c1.452 1.391 2.69 2.66 3.668 3.66 7.984 8.165 9.419 40.225 7.538 51.405-1.882 11.18-5.367 22.12-21.592 22.12-16.225 0-34.276-9.759-37.056-12.799-1.854-2.026-3.936-2.996-6.247-2.912l-.283-.358-.34-.048c-3.197-.464-5.489-1.087-6.874-1.871-2.705-1.531-5.678-9.579-5.678-11.352 0-1.755-4.439-14.523-4.528-15.875l-.001-.037c0-1.13-5.8-6.322-5.8-7.97 0-1.65-1.169-1.55 0-7.36l.34-1.708c1.244-6.186 3.679-16.43 12.962-20.882 10.202-4.892 30.032-10.83 39.586-10.83Z" clip-rule="evenodd"></path><path fill="#000" fill-rule="evenodd" d="M89.15 61.05c5.088-5.402 33.973-13.758 48.586-11.987l.439.057c1.166.148 2.315.372 3.45.676 3.666.857 7.453 2.154 10.482 4.32 2.53 1.773 10.508 4.667 8.156 9.304.872 1.653 1.197 3.694.608 5.322-.074.562-.247 1.08-.469 1.617 1.863 2.75 3.338 5.86 4.532 8.817 2.086 7.444 3.384 15.191 3.574 22.786.633 14.429-.949 31.665-13.511 40.996-7.589 5.912-19.477 6.111-28.005-1.22-.484-.573-2.76-2.119-2-2.39.226.238.458.471.695.699a.139.139 0 0 1-.009-.078l-.222-.202c-.419-.388-.962-.95-.344-.84.027.032.057.059.086.091.131.078.23.147.307.207l.04.031-.012-.012c-.356-.38-.57-.768-.037-.52l.07.034c.237.249.478.488.723.721a.138.138 0 0 1 .015-.085l-.229-.221c-.223-.218-.189-.219-.08-.396-.474-.665.411-.27.473-.011.554-.131 1.04.909 1.397 1.036 15.633 12.024 38.321 1.355 37.953-32.149l-.005-.656c-.108-10.713-1.009-21.724-5.438-31.422a27.99 27.99 0 0 0-1.443-2.722 26.702 26.702 0 0 0-1.177-1.928 17.435 17.435 0 0 1-3.484-.645c-.393-.099-.782-.209-1.17-.338-5.679.31-11.231.647-16.926.967l-1.779.11c-4.824.31-9.813.808-13.706 3.793-3.82 2.717-3.837 8.076-7.107 11.06-4.662 3.165-4.696 6.02-5.594 10.686.066 3.516 2.504 8.626-1.969 10.106.754 1.077-.298.56-.38.182-.009.002-.017.004-.024.004.673 1.251-.316.463-.403.062a.388.388 0 0 1-.159-.106c.678 1.096-.417.328-.352.129-1.31-2.013-4.004-2.326-5.903-1.792-.024.072-.108.078-.16.04-8.077 1.751-5.993 18.476 2.283 16.859.354-.072.346.098.416.114-.191-.502.348-.297.342-.192l.033-.002c.026-.002.015-.005.035.002-.185-1.027.855.461.773.522a.264.264 0 0 1 .1-.034l-.036-.097c-.173-.46-.158-.269-.157-.533-.13-.325-.139-.183-.109-.395.456-.353.591.719.743.797-.261-.364-.054-.66.192-.463 1.864 3.922 4.272 7.607 7.384 10.511.34.268.685.532 1.041.782 1.324 1.153 3.354 1.895 4.593 2.916a.13.13 0 0 1-.02.059l.028.026.029.027.431.207c.126.108.24.229.342.362.108.124.202.262.283.408.04.177-.049.251-.218.175-.074-.025-.148-.055-.222-.082l.011.014c.024.037.188.418-.001.356l-.022-.009c-.104-.038-.207-.08-.309-.12.121.15.23.312.328.45a.721.721 0 0 1 .192.378c-.004.08-.049.114-.129.104a14.118 14.118 0 0 1-.363-.127l.034.065c.085.168.206.449-.009.355a6.778 6.778 0 0 1-.539-.194c-.015.03-.044.04-.103.013a10.865 10.865 0 0 1-1.631-.736c-.459-.334-.921-.661-1.382-.993-.433-.26-.851-.55-1.25-.875a27.234 27.234 0 0 1-6.867-6.362c-3.103 2.689-9.308.12-13.146-1.984-3.395-1.881-4.729-5.359-5.074-9.109-.717-5.048-4.841-6.776-4.554-17.853-.007.002-.013.002-.022.002a2.196 2.196 0 0 1-.433-.18 2.198 2.198 0 0 1-.4-.245l-.153-.214a1.308 1.308 0 0 1-.207-.137l-.029.037c-.09.109-.03-.055-.024-.088l-.268-.364c-.635-.868-1.332-1.841-1.9-2.62l-.018.032c-.013.024-.02.04-.013.048-1.351-1.942-2.622-4.287-2.975-6.558-.417-1.749-.254-3.551.11-5.171 1.559-5.674 6.666-18.513 13.37-24.016Zm36.665 78.465-.085-.075.075.093a.631.631 0 0 0 .144.136.105.105 0 0 1-.003-.047 2.943 2.943 0 0 1-.131-.107Zm11.857-87.6c-9.91-.853-19.658 1.33-29.114 3.975l-.653.187c-5.377 1.535-11.063 2.916-15.607 6.202-6.349 4.864-9.627 12.603-12.488 19.748-2.498 5.309-1.221 11.295 2.543 15.002.392-3.684 1.06-7.26 2.104-10.807.217-.554.053-.735.522-.808.71 9.56-2.783 16.622 4.128 27.951 2.998 5.345-.473 9.256 7.995 12.069l.229.088c1.764.666 3.69 1.191 5.418.819l-.155-.252c-.157-.259-.205-.385.024-.496-.006-.013-.014-.025-.023-.04a29.452 29.452 0 0 1-.537-1.065c-.069.023-.139.04-.211.059.047.086.053.173-.078.203a3.691 3.691 0 0 1-1.433.193l-.105-.007a4.825 4.825 0 0 1-1.213-.229c-.103-.017-.207-.033-.308-.055-1.003-.222-2.064-.788-2.75-1.348-7.83-4.449-7.02-19.592 2.63-21.023.197-9.535 4.731-25.62 12.254-34.705 6.8-8.357 25.365-11.98 38.281-10.702.188.062.377.125.565.189 1.993.177 3.892 1.065 5.886 1.477-1.432-1.073-3.056-1.788-4.729-2.396-3.334-2.04-7.155-3.143-10.847-3.921a10.674 10.674 0 0 0-2.328-.309ZM98.148 109.94c.519-.282.46-.009.579-.088 3.732-.305 7.756 2.964 9.842 5.689-.164.171-.61-.336-.688-.416a.1.1 0 0 1-.036.023l.058.082c.846 1.214-.831-.215-.988-.509a.124.124 0 0 1-.086.017c.133.13.538.47.608.712l.108.09c1.014.869.93 1.523-.222.288.027.058.038.11.019.153l.04.026c.566.396 1.032 1.5-.152.367.123.827-1.173-.772-1.215-.761-2.243-1.762-5.546-3.475-8.36-3.705l-.096-.011c-.517-.067-.76-.22-.58-.558-.636-.151-.487-.464-.186-.454-.448-.295-.044-.577.216-.467-.179-.496.539-.166.604-.235.373-.574.473-.095.535-.243Zm-7.823-30.72c1.792-.656 7.087 1.31 6.663 3.914-.252.598-1.083.94-1.667.603l-.763-.512c-1.326-.889-2.523-1.668-3.948-2.444-.775-.385-1.109-1.202-.285-1.56Zm10.198-3.87-.692-.45c-3.736-2.446-9.017-6.153.349-2.318 1.068.458 2.486.729 3.069 1.746.915 1.874-1.493 2-2.726 1.022Zm.42-10.975c-.3-1.138 3.431.198 4.517.55l.165.062c1.056.394 2.267.76 2.899 1.671.74 1.26-.758 1.521-1.686.952-1.903-1.244-3.989-2.182-5.895-3.235Zm9.486-5.301c-2.099-2.294 3.52-.097 4.362.513l.024.018c.628.442.501 1.395-.089 1.675-1.679.032-2.915-1.368-4.297-2.206Zm9.555-2.514c-3.338-2.4 1.059-1.258 2.587-.318 1.041.919-.032 2.469-2.587.318Z" clip-rule="evenodd"></path><path fill="#000" fill-rule="evenodd" d="M152.125 125.777c1.335-.311 2.384.82 2.121 2.123-.277 1.379-1.759 1.851-3.002 1.808-1.409-.049-2.817-.34-4.233-.398a64.318 64.318 0 0 0-4.37-.032c-1.346.036-2.728.274-4.063.061-.521-.084-.471-.77-.133-1.015 1.005-.724 2.307-1.02 3.491-1.324a27.918 27.918 0 0 1 3.681-.693 36.275 36.275 0 0 1 3.785-.235c.576-.006 1.281.122 1.842.018.286-.053.577-.242.881-.313Zm-3.854-17.91c1.595.97 4.026 3.232 2.31 5.637-2.02 2.121-4.929-.311-6.362-1.41-1.329-.853-2.823 1.339-1.589 2.334 10.357 7.671 14.56-6.308 6.448-7.702-.893-.154-1.225.841-.807 1.141Zm-11.569-7.244c2.134-.355 2.508 2.688.393 2.901-.444.044-.886.083-1.326.122.043.138.071.279.087.425.02.124.035.256.048.406.067.749-.463 1.527-1.084 1.89-.644.378-1.569.428-2.209 0-.33-.22-.659-.469-.841-.834a2.434 2.434 0 0 1-.391-1.253c-.973.252-1.963.594-2.946.775.036.036.072.074.106.115.026.032-.01.092-.048.063l-.493-.11c-.151.02-.303.036-.454.046l.003-.013c-.253-.005-.46-.304-.233-.543.868-.918 2.222-1.528 3.457-2.038l1.19-.488c1.522-.619 3.128-1.196 4.741-1.464Zm17.169.941c1.397-.159 2.781-.096 4.181-.011 2.357.144 1.368 3.581-.523 2.788.02.125.025.251.01.369-.074.604-.271 1.115-.825 1.439a1.679 1.679 0 0 1-1.683 0c-.551-.322-.8-.775-.94-1.364-.109-.457-.066-.839-.003-1.291a.94.94 0 0 1 .177-.415 18.95 18.95 0 0 0-.396-.095c-1.176-.267-2.336-.214-3.509-.383-.125-.018-.145-.22-.035-.272 1.053-.495 2.393-.633 3.546-.765Zm-17.384-10.616c.807-.308 1.82.204 2.232.908.467.8.267 1.723-.309 2.396-.885 1.033-2.57 1.67-3.812 2.26l-.1.047a45.099 45.099 0 0 1-3.913 1.673c-1.306.485-2.664.864-4.018 1.19-.714.172-1.443.314-2.172.404-.576.07-1.02-.088-1.571-.088-.081 0-.106-.106-.04-.147.515-.324.897-.75 1.458-1.05.585-.312 1.172-.62 1.761-.923 1.191-.614 2.338-1.298 3.487-1.986a54.178 54.178 0 0 0 3.545-2.306c1.126-.8 2.164-1.887 3.452-2.378Zm14.374-.658c1.007-.195 2.005.281 2.303 1.308.286.984-.013 1.195.75 1.9.607.56 1.263 1.06 1.924 1.554l.973.724c1.764 1.306 3.541 2.54 5.568 3.421.172.074.073.33-.09.332-3.222.063-6.313-.374-9.222-1.817-1.358-.674-2.724-1.527-3.511-2.873-.912-1.558-.886-4.124 1.305-4.549Z" clip-rule="evenodd"></path></svg>