<svg xmlns="http://www.w3.org/2000/svg" xmlns:xlink="http://www.w3.org/1999/xlink" data-name="Layer 1" viewBox="0 0 675.91 597" id="content-digital"><defs><linearGradient id="a" x1="96.1" x2="772.01" y1="543.32" y2="543.32" gradientUnits="userSpaceOnUse"><stop offset="0" stop-color="#183866"></stop><stop offset="1" stop-color="#1a7fc1"></stop></linearGradient><linearGradient id="d" x1="551.68" x2="716.32" y1="251.7" y2="251.7" xlink:href="#a"></linearGradient><linearGradient id="e" x1="583.41" x2="585.3" y1="228.49" y2="489.16" gradientUnits="userSpaceOnUse"><stop offset=".02" stop-color="#fff" stop-opacity="0"></stop><stop offset="1" stop-color="#fff"></stop></linearGradient><linearGradient id="c" x1="2419.27" x2="2401.82" y1="1169.44" y2="1162.7" gradientTransform="rotate(-28.59 -48.124 4551.654)" gradientUnits="userSpaceOnUse"><stop offset="0" stop-color="#ecc4d7"></stop><stop offset=".42" stop-color="#efd4d1"></stop><stop offset="1" stop-color="#f2eac9"></stop></linearGradient><linearGradient id="b" x1="407.83" x2="410.02" y1="-129.02" y2="106.59" gradientUnits="userSpaceOnUse"><stop offset=".01"></stop><stop offset=".97" stop-opacity="0"></stop></linearGradient><linearGradient id="f" x1="679.19" x2="636.81" y1="231.39" y2="204.55" xlink:href="#b"></linearGradient><linearGradient id="g" x1="439.7" x2="417.93" y1="369.21" y2="360.8" xlink:href="#c"></linearGradient><linearGradient id="h" x1="709.23" x2="675.33" y1="205" y2="206.41" xlink:href="#b"></linearGradient><linearGradient id="i" x1="785.66" x2="669.08" y1="299.95" y2="254.91" xlink:href="#c"></linearGradient><linearGradient id="j" x1="697.82" x2="647.23" y1="163.8" y2="144.26" xlink:href="#c"></linearGradient><linearGradient id="k" x1="649.12" x2="625.58" y1="195.74" y2="184.91" xlink:href="#b"></linearGradient><linearGradient id="l" x1="558.72" x2="627.81" y1="197.56" y2="197.56" xlink:href="#c"></linearGradient><linearGradient id="m" x1="582.5" x2="579.68" y1="534.94" y2="725.55" gradientUnits="userSpaceOnUse"><stop offset="0" stop-color="#68e1fd"></stop><stop offset=".2" stop-color="#5db4cf"></stop><stop offset=".46" stop-color="#50819b"></stop><stop offset=".69" stop-color="#475c76"></stop><stop offset=".87" stop-color="#41455e"></stop><stop offset=".99" stop-color="#3f3d56"></stop></linearGradient><linearGradient id="n" x1="355.3" x2="56.14" y1="188.47" y2="191.76" xlink:href="#b"></linearGradient><linearGradient id="o" x1="378.56" x2="361.32" y1="419.77" y2="205.89" xlink:href="#b"></linearGradient><linearGradient id="p" x1="391.2" x2="354.93" y1="15.64" y2="249.63" xlink:href="#c"></linearGradient><linearGradient id="q" x1="357.62" x2="404.82" y1="203.23" y2="279.19" xlink:href="#c"></linearGradient><linearGradient id="r" x1="464.65" x2="513.66" y1="270.96" y2="270.96" xlink:href="#c"></linearGradient></defs><path fill="#68e1fd" d="M87.22 273.91c-15.39 26.55-31 53.65-37.49 83.65s-2.43 63.91 17.94 86.86c11.47 12.92 27 21.35 42.26 29.51 71.21 38.2 144.59 77.1 224.86 86.47A323.55 323.55 0 0 0 467.96 548c47.13-14.69 93.61-43.58 111.69-89.51 8.64-22 10.09-46 14.66-69.13 11.36-57.58 41.92-118.58 16.33-171.4-28-57.9-104.8-68-169.09-70.36-80.72-3-163.74-6.39-243.53 9.22-63.69 12.44-79.81 63.69-110.8 117.09Z" opacity=".18"></path><path fill="url(#a)" d="M636.66 504.14c8.06-1.05 12.92-14.49-69.32-11.17-40-3.27-80.08-3.3-120.17-3.32-100.82-.07-238 6.67-338.81 6.61-6 0-14.69 4-11.63 9.22 1.18 2 3.7 2.72 6 3.24 121.27 27.71 284.06 12.21 407.51 27.53 25.45 1.3 35.29 11.15-2.92 35.41 9.37 25.45 41.2 25.42 51.62 25.33l180.45-1.47c8-.07 16.45-.24 23.41-4.23s11.63-13.17 7.88-20.27c-3.35-6.34-11.43-8.23-18.56-9-32.4-3.36-65.11 3-97.61 1-28.69-1.84-51.94-12.28-78.26-22.26-13.02-4.93-20.87-26.08 60.41-36.62Z" opacity=".19" transform="translate(-96.1)"></path><path fill="#68e1fd" d="M620.22 20.48V362a20.47 20.47 0 0 1-20.48 20.48H26.61a20.2 20.2 0 0 1-3.92-.37A20.5 20.5 0 0 1 6.13 362V20.48A20.49 20.49 0 0 1 26.61 0h573.13a20.48 20.48 0 0 1 20.48 20.48Z"></path><path fill="#25233a" d="M428.01 368.73s1.08 3.3 0 5.76a81.67 81.67 0 0 0-2.58 8l-29.33-.83s-.82-7.5 4.45-10.78 16.25-5.14 17.62-7.14Z"></path><path fill="url(#d)" d="M716.32 225.87V362a20.47 20.47 0 0 1-20.48 20.48H551.68V247.16a21.37 21.37 0 0 1 19.15-21.26q-1.47-1.72-2.79-3.56c-5.87-8.07-16.11-26.83-13-37.2.88-2.92 3.46-5.5 6.5-5.53 3.76 0 6.46 3.48 8.51 6.64l8.76 13.46c2 3.11 4.13 6.3 7.26 8.3 6.09 3.9 14.51 2 20.17-2.46s9.19-11.09 12.57-17.49l7.61-14.43a14.31 14.31 0 0 1 3.28-4.6 28.72 28.72 0 0 0 3.13-2.31c1.24-1.34 1.57-3.25 1.85-5.06l3.24-20.75c.74-4.69 1.52-9.53 4-13.56s7.17-7.12 11.84-6.27c4.29.77 7.47 4.65 8.74 8.83s1 8.63.63 13l-1.65 22.57 4.4-.42c2.12 5.61-1.11 11.73-1.38 17.73-.33 7 3.2 14.8-.88 20.47-2.75 3.82-8.45 5.58-9.42 10.19-.73 3.48 1.71 7.22.44 10.55a6.27 6.27 0 0 1-1.1 1.8h60.91c.63-.02 1.26.01 1.87.07Z" opacity=".19" transform="translate(-96.1)"></path><path fill="#fff" d="M692.87 318H268.16a5.16 5.16 0 0 1-5.16-5.15 5.16 5.16 0 0 1 5.16-5.16h424.71a5.16 5.16 0 0 1 5.16 5.16 5.16 5.16 0 0 1-5.16 5.15Z" opacity=".18" transform="translate(-96.1)" style="isolation:isolate"></path><path fill="#25233a" d="M641.96 563.58H500.53c-4.12 0-2.56 15.1-5.83 13.07-.67-.42-10-10.6-10.65-11.09-5-3.91-4.88-16.52-4.88-23.35V303.05a21.36 21.36 0 0 1 21.36-21.37h141.43c14.72.56 18.94 10.81 19.13 11.84s9.44 17.52 9.44 18.62l-7.21 230.07a21.36 21.36 0 0 1-21.36 21.37Z"></path><rect width="184.16" height="281.9" x="490.5" y="303.39" fill="#68e1fd" rx="21.37"></rect><rect width="165.33" height="212.39" x="502.29" y="335.01" fill="url(#e)" rx="17.58"></rect><path fill="#25233a" d="M493.84 405.81s2.52 2.38 2.75 5.06a82.05 82.05 0 0 0 1.55 8.24L472 432.42s-4.31-6.2-1.25-11.6 11.8-12.28 12-14.7Z"></path><path fill="url(#c)" d="m481.45 398.57 1.77 9.85 10.44-1.18-1.71-10.16-10.5 1.49z"></path><path fill="url(#b)" d="M716.32 20.48v12H102.23v-12A20.49 20.49 0 0 1 122.71 0h573.13a20.48 20.48 0 0 1 20.48 20.48Z" transform="translate(-96.1)"></path><path fill="#fff" opacity=".57" style="isolation:isolate" d="M167.91 59.64H464.5v231.1H167.91z"></path><path fill="#3f3d56" d="M348.81 209.55a58.32 58.32 0 0 1-1.16 12.17c-1.64 6.78-5.65 12.73-9.59 18.5a19.28 19.28 0 0 0-16.4-8c-9.3-.38-18.52 1.1-27.71 2.91-14.21 2.78-28.36 6.34-42.68 5.05-7.25-.66-14.37-2.55-21.65-2.81-14.14-.53-27.67 5.08-41.16 9.35-2.12.67-5.12.92-5.89-1.17a4.41 4.41 0 0 1 .2-2.79 143.85 143.85 0 0 0 5.13-23.42c1.56-13.48.2-27.11-1.18-40.61-1.49-14.73-3-29.47-5.09-44.13-2.17-15.16-4.94-30.93-.35-45.54a25.92 25.92 0 0 1 6-10.72 31 31 0 0 1 8.08-5.42 78.12 78.12 0 0 1 17.84-6.82 113.92 113.92 0 0 1 16.47-2.19l28.48-2.39c7.36-.62 14.84-1.23 22.08.2a40.12 40.12 0 0 1 20.61 11.18c.9.91 1.87 1.94 3.14 2.07a5.6 5.6 0 0 0 3-.85c8.51-4.08 17.73-4 26.6-1.25 8.32 2.58 10.32 8.67 10.63 17.13q.33 7.92.32 15.83a405.57 405.57 0 0 1-3 49.26c-1.17 9.5-2.63 19.43.72 28.4 1.58 4.2 4.16 8 5.45 12.29s1.2 9.15 1.11 13.77Z"></path><path fill="#25233a" d="M348.81 209.55a58.32 58.32 0 0 1-1.16 12.17c-1.64 6.78-5.65 12.73-9.59 18.5a19.28 19.28 0 0 0-16.4-8c-9.3-.38-18.52 1.1-27.71 2.91l-34.18-10.73 7.46-55.82L298.79 96s33.5-16.77 41.31-3.64c1.49 2.5 3 7.33 4.43 13.52a405.57 405.57 0 0 1-3 49.26c-1.17 9.5-2.63 19.43.72 28.4 1.58 4.2 4.16 8 5.45 12.29s1.2 9.1 1.11 13.72Z"></path><path fill="#fff" opacity=".57" style="isolation:isolate" d="M22.69 59.64h129.55v122.89H22.69zM22.69 196.75h129.55v122.89H22.69z"></path><path fill="#fff" d="M702.21 87.3H595.49a5.16 5.16 0 0 1-5.15-5.16 5.16 5.16 0 0 1 5.15-5.14h106.72a5.16 5.16 0 0 1 5.16 5.15 5.16 5.16 0 0 1-5.16 5.15ZM702.21 115H595.49a5.16 5.16 0 0 1-5.15-5.16 5.16 5.16 0 0 1 5.15-5.15h106.72a5.16 5.16 0 0 1 5.16 5.15 5.16 5.16 0 0 1-5.16 5.16ZM702.21 142.64H595.49a5.16 5.16 0 0 1-5.15-5.16 5.16 5.16 0 0 1 5.15-5.15h106.72a5.16 5.16 0 0 1 5.16 5.15 5.16 5.16 0 0 1-5.16 5.16ZM702.21 170.31H595.49a5.16 5.16 0 0 1-5.15-5.16 5.16 5.16 0 0 1 5.15-5.15h106.72a5.16 5.16 0 0 1 5.16 5.15 5.16 5.16 0 0 1-5.16 5.16ZM702.21 198H595.49a5.16 5.16 0 0 1-5.15-5.16 5.16 5.16 0 0 1 5.15-5.15h106.72a5.16 5.16 0 0 1 5.16 5.15 5.16 5.16 0 0 1-5.16 5.16ZM702.21 225.65H595.49a5.16 5.16 0 0 1-5.15-5.16 5.16 5.16 0 0 1 5.15-5.15h106.72a5.16 5.16 0 0 1 5.16 5.15 5.16 5.16 0 0 1-5.16 5.16Z" opacity=".18" transform="translate(-96.1)" style="isolation:isolate"></path><path fill="#25233a" d="M518.12 241.62s-47.61 1.88-55.33 9.82-42.2 105-42.2 105l16.89 6.33s35.1-68.81 37.95-72 40.76-2.17 53.45-6.92S555.27 265 555.27 265Z"></path><path fill="#68e1fd" d="m547.11 179.06-29 62.56s12.25 26 37.15 23.33l8.44-1.84 17.2-42.62 13.71-32.82s.23-12.29-9.15-12.88-23.56-11.2-38.35 4.27Z"></path><path fill="url(#f)" d="m643.21 179.06-29 62.56s12.25 26 37.15 23.33l8.44-1.84 17.2-42.62 13.71-32.82s.23-12.29-9.15-12.88-23.56-11.2-38.35 4.27Z" transform="translate(-96.1)"></path><path fill="#3f3d56" d="m478.51 295.16 47.92-41.81 37.28 9.76s-6.55 34.65-18.8 41S502.29 322 502.29 322l-7.49 77.77-13.25.65s-12.42-87.07-10.31-92.74 7.27-12.52 7.27-12.52Z"></path><path fill="url(#g)" d="m420.6 356.44-3.16 9.5 9.73 3.96 6.25-8.65-12.82-4.81z"></path><path fill="#68e1fd" d="M589.68 176.11s6.51 3.48 9.56 15.12 6.87 34.42 6.87 34.42L585.53 236l-4.63-35s-.56-19.09 8.78-24.89Z"></path><path fill="url(#h)" d="M685.78 176.11s6.51 3.48 9.56 15.12 6.87 34.42 6.87 34.42L681.63 236 677 201s-.56-19.09 8.78-24.89Z" transform="translate(-96.1)"></path><path fill="url(#i)" d="M698 298.43 681.63 236l16.55-8.33s11.87 68.51 12.6 69.21 8.62 4.33 17.62 7.24c10.08 3.25 1.53 4.25-7.09 4.49s-20.6 1.68-23.31-10.18Z" transform="translate(-96.1)"></path><path fill="url(#j)" d="M657.52 129.86s-6.84 16.17-8.58 16.69 1.87 3.37 1.87 3.37-.14 4.33 0 6 2.47 3 6.36 3.48-1 13.21-1 13.21-2.1 5 12.32 1.3l3.93-.47s10.58-32.28 10.48-35.96-17.9-19.79-25.38-7.62Z" transform="translate(-96.1)"></path><path fill="#3f3d56" d="M553.41 114.14a6.73 6.73 0 0 0-.29 6.71 33.22 33.22 0 0 1 1.95 3 12.9 12.9 0 0 0 .83 2.15c.78 1.22 2.28 1.41 3.61 1.5l7.39.5a11 11 0 0 1 5.48 1.33c3.45 2.24 4.13 7.71 3.16 12.09-.43 1.92-.91 4.41.55 5.49a5.78 5.78 0 0 1 .91-2.52 1.49 1.49 0 0 1 2.16-.38 2.19 2.19 0 0 1 .54 1.11 5.19 5.19 0 0 1-2.3 5.55c-.55.29-1.21.5-1.51 1.11-.57 1.15.63 2.33 1.45 3.27a7.06 7.06 0 0 1 1.44 6.06c3.38-1.83 4-6.89 5.68-10.67s5.18-7 5.61-11.4a8.76 8.76 0 0 0-2.2-6.73 3.7 3.7 0 0 1-1.22-1.75 6.6 6.6 0 0 1 .43-2.41c.48-2.52-1.68-4.61-3.66-5.86a3.91 3.91 0 0 1-1.62-1.53c-1.71-3.66-1.45-5.17-5.56-6.3a17.24 17.24 0 0 0-7.34-.58c-3.52.55-4.84 1-8.1-.75-2.54-1.39-5.39-1.94-7.39 1.01Z"></path><path fill="#68e1fd" d="M560.02 172.59s-13.92 1.66-25.48 15.08-13.44 12.16-13.44 12.16l10.61 12.47s14.41-33.82 28.31-39.71Z"></path><path fill="url(#k)" d="M656.12 172.59s-13.92 1.66-25.48 15.08-13.44 12.16-13.44 12.16l10.61 12.47s14.41-33.82 28.31-39.71Z" transform="translate(-96.1)"></path><path fill="url(#l)" d="m627.81 212.3-6.5 15.38s-11.88 8.16-25.82-2S574.61 178 574.61 178s-7.15-7.07-14-9.32 6.74-5.89 14-3.29 8.51 1.83 8.51 1.83 3.42-3.44 5.32-2.73-3.44 10.3-3.44 10.3 9.74 35.9 17.16 37.51 12.39 1.51 15.87-3l3.47-4.49Z" transform="translate(-96.1)"></path><rect width="43.02" height="14.77" x="560.55" y="556.89" fill="url(#m)" rx="7.38"></rect><path fill="url(#n)" d="M148.56 0c-3.16 0-29.77.93-29.77 32.46V382.1a20.5 20.5 0 0 1-16.56-20.1V20.48A20.49 20.49 0 0 1 122.71 0Z" transform="translate(-96.1)"></path><path fill="#68e1fd" d="m187.9 231.05-20 10.57v49.12h220s-20.3-57.48-102.28-63.06c-54.72-3.68-48.09-4.1-68.72-3.94a62.92 62.92 0 0 0-29 7.31Z"></path><path fill="url(#o)" d="M271.63 290.74s5.53-41.87 49.89-48.1 97.65 6.62 105.29 10.71c39.08 20.88 37.84 37.39 37.84 37.39Z" transform="translate(-96.1)"></path><path fill="url(#p)" d="M397.6 212.29c-9.68 0-16.25-.16-20.73.09-8.05.45-9.33 2.16-9.77 8.11-.58 7.8 9.61 29.85 6.32 38.17a4.65 4.65 0 0 1-3.48 3.07s-38.76 0-65.57-37.33c0 0 18.89-18.76 17.14-45.35s-11.29-70.2-1.79-74.89S412.5 81 425 114.48s-.29 97.89-27.4 97.81Z" transform="translate(-96.1)"></path><path fill="#3f3d56" d="M258.55 117.64c-3.5 9-3.07 19.22-3.76 29s-3.14 20.48-10.26 26c-1.6 1.24-3.44 2.2-4.67 3.91-3.14 4.35-1 10.88-1.76 16.46-1.43 10.52-12.33 15.12-17.91 23.62-3.41 5.2-4.76 11.86-8.05 17.16s-10.13 8.94-14.57 4.88c-2.28-2.09-3.18-5.56-3.9-8.81a401 401 0 0 1-7.94-122.8c1.34-14.84 4.73-31.67 16.21-38.65 4.53-2.75 9.74-3.53 14.83-4.27 29.35-4.24 61.35-7.88 86.52 10 2.32 1.64 4.64 3.58 5.78 6.41 5.91 14.69-17.42 13.84-23.48 15.37-11.07 2.73-22.2 9.3-27.04 21.72Z"></path><path fill="url(#q)" d="M373.42 258.66a5.11 5.11 0 0 1-3.05 0c-2.07-.61-3.51-2.41-4.79-4.14-6.51-8.72-12.6-18.32-13.87-29.13-.49-4.16-.08-8.81 2.84-11.82 2.35-2.41 5.85-3.28 9.2-3.66 3.18-.36 2.52.27 9.51.64 1.27.07 13.36.87 14.5 1.64-18.12.25-20.22 2.3-20.66 8.25-.58 7.85 9.61 29.9 6.32 38.22Z" transform="translate(-96.1)"></path><path fill="url(#r)" d="M464.65 290.74s14.19-27.14 23-29 11.66-8.86 17.76-10.29 6.79 3.14 8.08 13.51-7.93 25.79-7.93 25.79Z" transform="translate(-96.1)"></path><rect width="149.15" height="49.37" x="510.11" y="356.44" fill="#68e1fd" rx="10.59"></rect><rect width="106.9" height="7.82" x="541.57" y="417.22" fill="#68e1fd" rx="3.31"></rect><rect width="106.9" height="7.82" x="541.57" y="450.14" fill="#68e1fd" rx="3.31"></rect><rect width="106.9" height="7.82" x="541.57" y="483.06" fill="#68e1fd" rx="3.31"></rect><rect width="106.9" height="7.82" x="541.57" y="514.68" fill="#68e1fd" rx="3.31"></rect></svg>